# xmcd
#
# Track frame offsets:
#	150
#	13792
#	27040
#	41880
#	55480
#	70202
#	83960
#	97910
#	113382
#	128515
#	143150
#	156310
#	169627
#	183859
#	195905
#
# Disc length: 2797 seconds
#
# Revision: 1
# Processed by: cddbd v1.5.1PL0 Copyright (c) Steve Scherf et al.
# Submitted via: EasyCDDAExtractor 6.2.0.3
#
DISCID=b90aeb0f
DTITLE=Banda BALI - Vol. 04
DYEAR=2004
DGENRE=Pop
TTITLE0=A ex ou eu
TTITLE1=Não vou negar
TTITLE2=Pra sempre vou te amar
TTITLE3=Bad Boy
TTITLE4=Noites de solidão
TTITLE5=Você não soube me amar
TTITLE6=Deixa eu ficar com a tua
TTITLE7=Ainda te amo
TTITLE8=Onde você tem andado
TTITLE9=Não sou cara de pau
TTITLE10=Nem pesar
TTITLE11=Você me esqueceu
TTITLE12=Te amo, te quero
TTITLE13=Pra lutar por esse amor
TTITLE14=Se você bater a porta
EXTD=
EXTT0=
EXTT1=
EXTT2=
EXTT3=
EXTT4=
EXTT5=
EXTT6=
EXTT7=
EXTT8=
EXTT9=
EXTT10=
EXTT11=
EXTT12=
EXTT13=
EXTT14=
PLAYORDER=
